<?xml version="1.0" encoding="UTF-8"?><svg version="1.1" viewBox="0 0 24 24" xmlns="http://www.w3.org/2000/svg" xmlns:xlink="http://www.w3.org/1999/xlink"><!--Generated by IJSVG (https://github.com/iconjar/IJSVG)--><path d="M0,0h24v24h-24v-24Z" fill="none"></path><path fill="#000" d="M11,15h2v2h-2Zm0,-8h2v6h-2Zm0.99,-5c-5.52,0 -9.99,4.48 -9.99,10c0,5.52 4.47,10 9.99,10c5.53,0 10.01,-4.48 10.01,-10c0,-5.52 -4.48,-10 -10.01,-10Zm0.01,18c-4.42,0 -8,-3.58 -8,-8c0,-4.42 3.58,-8 8,-8c4.42,0 8,3.58 8,8c0,4.42 -3.58,8 -8,8Z"></path></svg>